<?xml version="1.0" encoding="utf-8" standalone="no"?>
<!DOCTYPE svg PUBLIC "-//W3C//DTD SVG 1.1//EN"
  "http://www.w3.org/Graphics/SVG/1.1/DTD/svg11.dtd">
<svg height="288pt" version="1.1" viewBox="0 0 432 288" width="432pt" xmlns="http://www.w3.org/2000/svg" xmlns:xlink="http://www.w3.org/1999/xlink">
 <metadata>
  <rdf:RDF xmlns:cc="http://creativecommons.org/ns#" xmlns:dc="http://purl.org/dc/elements/1.1/" xmlns:rdf="http://www.w3.org/1999/02/22-rdf-syntax-ns#">
   <cc:Work>
    <dc:type rdf:resource="http://purl.org/dc/dcmitype/StillImage"/>
    <dc:date>2022-07-04T13:28:00.958345</dc:date>
    <dc:format>image/svg+xml</dc:format>
    <dc:creator>
     <cc:Agent>
      <dc:title>Matplotlib v3.4.3, https://matplotlib.org/</dc:title>
     </cc:Agent>
    </dc:creator>
   </cc:Work>
  </rdf:RDF>
 </metadata>
 <defs>
  <style type="text/css">*{stroke-linecap:butt;stroke-linejoin:round;}</style>
 </defs>
 <g id="figure_1">
  <g id="patch_1">
   <path d="M 0 288 
L 432 288 
L 432 0 
L 0 0 
z
" style="fill:#ffffff;"/>
  </g>
  <g id="axes_1">
   <g id="patch_2">
    <path d="M 54 252 
L 388.8 252 
L 388.8 34.56 
L 54 34.56 
z
" style="fill:#ffffff;"/>
   </g>
   <g id="matplotlib.axis_1">
    <g id="xtick_1">
     <g id="line2d_1">
      <defs>
       <path d="M 0 0 
L 0 3.5 
" id="me0e46ef946" style="stroke:#000000;stroke-width:0.8;"/>
      </defs>
      <g>
       <use style="stroke:#000000;stroke-width:0.8;" x="69.218182" xlink:href="#me0e46ef946" y="252"/>
      </g>
     </g>
     <g id="text_1">
      <!-- 0 -->
      <g transform="translate(66.036932 266.598437)scale(0.1 -0.1)">
       <defs>
        <path d="M 2034 4250 
Q 1547 4250 1301 3770 
Q 1056 3291 1056 2328 
Q 1056 1369 1301 889 
Q 1547 409 2034 409 
Q 2525 409 2770 889 
Q 3016 1369 3016 2328 
Q 3016 3291 2770 3770 
Q 2525 4250 2034 4250 
z
M 2034 4750 
Q 2819 4750 3233 4129 
Q 3647 3509 3647 2328 
Q 3647 1150 3233 529 
Q 2819 -91 2034 -91 
Q 1250 -91 836 529 
Q 422 1150 422 2328 
Q 422 3509 836 4129 
Q 1250 4750 2034 4750 
z
" id="DejaVuSans-30" transform="scale(0.015625)"/>
       </defs>
       <use xlink:href="#DejaVuSans-30"/>
      </g>
     </g>
    </g>
    <g id="xtick_2">
     <g id="line2d_2">
      <g>
       <use style="stroke:#000000;stroke-width:0.8;" x="114.51039" xlink:href="#me0e46ef946" y="252"/>
      </g>
     </g>
     <g id="text_2">
      <!-- 200 -->
      <g transform="translate(104.96664 266.598437)scale(0.1 -0.1)">
       <defs>
        <path d="M 1228 531 
L 3431 531 
L 3431 0 
L 469 0 
L 469 531 
Q 828 903 1448 1529 
Q 2069 2156 2228 2338 
Q 2531 2678 2651 2914 
Q 2772 3150 2772 3378 
Q 2772 3750 2511 3984 
Q 2250 4219 1831 4219 
Q 1534 4219 1204 4116 
Q 875 4013 500 3803 
L 500 4441 
Q 881 4594 1212 4672 
Q 1544 4750 1819 4750 
Q 2544 4750 2975 4387 
Q 3406 4025 3406 3419 
Q 3406 3131 3298 2873 
Q 3191 2616 2906 2266 
Q 2828 2175 2409 1742 
Q 1991 1309 1228 531 
z
" id="DejaVuSans-32" transform="scale(0.015625)"/>
       </defs>
       <use xlink:href="#DejaVuSans-32"/>
       <use x="63.623047" xlink:href="#DejaVuSans-30"/>
       <use x="127.246094" xlink:href="#DejaVuSans-30"/>
      </g>
     </g>
    </g>
    <g id="xtick_3">
     <g id="line2d_3">
      <g>
       <use style="stroke:#000000;stroke-width:0.8;" x="159.802597" xlink:href="#me0e46ef946" y="252"/>
      </g>
     </g>
     <g id="text_3">
      <!-- 400 -->
      <g transform="translate(150.258847 266.598437)scale(0.1 -0.1)">
       <defs>
        <path d="M 2419 4116 
L 825 1625 
L 2419 1625 
L 2419 4116 
z
M 2253 4666 
L 3047 4666 
L 3047 1625 
L 3713 1625 
L 3713 1100 
L 3047 1100 
L 3047 0 
L 2419 0 
L 2419 1100 
L 313 1100 
L 313 1709 
L 2253 4666 
z
" id="DejaVuSans-34" transform="scale(0.015625)"/>
       </defs>
       <use xlink:href="#DejaVuSans-34"/>
       <use x="63.623047" xlink:href="#DejaVuSans-30"/>
       <use x="127.246094" xlink:href="#DejaVuSans-30"/>
      </g>
     </g>
    </g>
    <g id="xtick_4">
     <g id="line2d_4">
      <g>
       <use style="stroke:#000000;stroke-width:0.8;" x="205.094805" xlink:href="#me0e46ef946" y="252"/>
      </g>
     </g>
     <g id="text_4">
      <!-- 600 -->
      <g transform="translate(195.551055 266.598437)scale(0.1 -0.1)">
       <defs>
        <path d="M 2113 2584 
Q 1688 2584 1439 2293 
Q 1191 2003 1191 1497 
Q 1191 994 1439 701 
Q 1688 409 2113 409 
Q 2538 409 2786 701 
Q 3034 994 3034 1497 
Q 3034 2003 2786 2293 
Q 2538 2584 2113 2584 
z
M 3366 4563 
L 3366 3988 
Q 3128 4100 2886 4159 
Q 2644 4219 2406 4219 
Q 1781 4219 1451 3797 
Q 1122 3375 1075 2522 
Q 1259 2794 1537 2939 
Q 1816 3084 2150 3084 
Q 2853 3084 3261 2657 
Q 3669 2231 3669 1497 
Q 3669 778 3244 343 
Q 2819 -91 2113 -91 
Q 1303 -91 875 529 
Q 447 1150 447 2328 
Q 447 3434 972 4092 
Q 1497 4750 2381 4750 
Q 2619 4750 2861 4703 
Q 3103 4656 3366 4563 
z
" id="DejaVuSans-36" transform="scale(0.015625)"/>
       </defs>
       <use xlink:href="#DejaVuSans-36"/>
       <use x="63.623047" xlink:href="#DejaVuSans-30"/>
       <use x="127.246094" xlink:href="#DejaVuSans-30"/>
      </g>
     </g>
    </g>
    <g id="xtick_5">
     <g id="line2d_5">
      <g>
       <use style="stroke:#000000;stroke-width:0.8;" x="250.387013" xlink:href="#me0e46ef946" y="252"/>
      </g>
     </g>
     <g id="text_5">
      <!-- 800 -->
      <g transform="translate(240.843263 266.598437)scale(0.1 -0.1)">
       <defs>
        <path d="M 2034 2216 
Q 1584 2216 1326 1975 
Q 1069 1734 1069 1313 
Q 1069 891 1326 650 
Q 1584 409 2034 409 
Q 2484 409 2743 651 
Q 3003 894 3003 1313 
Q 3003 1734 2745 1975 
Q 2488 2216 2034 2216 
z
M 1403 2484 
Q 997 2584 770 2862 
Q 544 3141 544 3541 
Q 544 4100 942 4425 
Q 1341 4750 2034 4750 
Q 2731 4750 3128 4425 
Q 3525 4100 3525 3541 
Q 3525 3141 3298 2862 
Q 3072 2584 2669 2484 
Q 3125 2378 3379 2068 
Q 3634 1759 3634 1313 
Q 3634 634 3220 271 
Q 2806 -91 2034 -91 
Q 1263 -91 848 271 
Q 434 634 434 1313 
Q 434 1759 690 2068 
Q 947 2378 1403 2484 
z
M 1172 3481 
Q 1172 3119 1398 2916 
Q 1625 2713 2034 2713 
Q 2441 2713 2670 2916 
Q 2900 3119 2900 3481 
Q 2900 3844 2670 4047 
Q 2441 4250 2034 4250 
Q 1625 4250 1398 4047 
Q 1172 3844 1172 3481 
z
" id="DejaVuSans-38" transform="scale(0.015625)"/>
       </defs>
       <use xlink:href="#DejaVuSans-38"/>
       <use x="63.623047" xlink:href="#DejaVuSans-30"/>
       <use x="127.246094" xlink:href="#DejaVuSans-30"/>
      </g>
     </g>
    </g>
    <g id="xtick_6">
     <g id="line2d_6">
      <g>
       <use style="stroke:#000000;stroke-width:0.8;" x="295.679221" xlink:href="#me0e46ef946" y="252"/>
      </g>
     </g>
     <g id="text_6">
      <!-- 1000 -->
      <g transform="translate(282.954221 266.598437)scale(0.1 -0.1)">
       <defs>
        <path d="M 794 531 
L 1825 531 
L 1825 4091 
L 703 3866 
L 703 4441 
L 1819 4666 
L 2450 4666 
L 2450 531 
L 3481 531 
L 3481 0 
L 794 0 
L 794 531 
z
" id="DejaVuSans-31" transform="scale(0.015625)"/>
       </defs>
       <use xlink:href="#DejaVuSans-31"/>
       <use x="63.623047" xlink:href="#DejaVuSans-30"/>
       <use x="127.246094" xlink:href="#DejaVuSans-30"/>
       <use x="190.869141" xlink:href="#DejaVuSans-30"/>
      </g>
     </g>
    </g>
    <g id="xtick_7">
     <g id="line2d_7">
      <g>
       <use style="stroke:#000000;stroke-width:0.8;" x="340.971429" xlink:href="#me0e46ef946" y="252"/>
      </g>
     </g>
     <g id="text_7">
      <!-- 1200 -->
      <g transform="translate(328.246429 266.598437)scale(0.1 -0.1)">
       <use xlink:href="#DejaVuSans-31"/>
       <use x="63.623047" xlink:href="#DejaVuSans-32"/>
       <use x="127.246094" xlink:href="#DejaVuSans-30"/>
       <use x="190.869141" xlink:href="#DejaVuSans-30"/>
      </g>
     </g>
    </g>
    <g id="xtick_8">
     <g id="line2d_8">
      <g>
       <use style="stroke:#000000;stroke-width:0.8;" x="386.263636" xlink:href="#me0e46ef946" y="252"/>
      </g>
     </g>
     <g id="text_8">
      <!-- 1400 -->
      <g transform="translate(373.538636 266.598437)scale(0.1 -0.1)">
       <use xlink:href="#DejaVuSans-31"/>
       <use x="63.623047" xlink:href="#DejaVuSans-34"/>
       <use x="127.246094" xlink:href="#DejaVuSans-30"/>
       <use x="190.869141" xlink:href="#DejaVuSans-30"/>
      </g>
     </g>
    </g>
    <g id="text_9">
     <!-- Zeit in Sekunden -->
     <g transform="translate(179.066406 280.276563)scale(0.1 -0.1)">
      <defs>
       <path d="M 359 4666 
L 4025 4666 
L 4025 4184 
L 1075 531 
L 4097 531 
L 4097 0 
L 288 0 
L 288 481 
L 3238 4134 
L 359 4134 
L 359 4666 
z
" id="DejaVuSans-5a" transform="scale(0.015625)"/>
       <path d="M 3597 1894 
L 3597 1613 
L 953 1613 
Q 991 1019 1311 708 
Q 1631 397 2203 397 
Q 2534 397 2845 478 
Q 3156 559 3463 722 
L 3463 178 
Q 3153 47 2828 -22 
Q 2503 -91 2169 -91 
Q 1331 -91 842 396 
Q 353 884 353 1716 
Q 353 2575 817 3079 
Q 1281 3584 2069 3584 
Q 2775 3584 3186 3129 
Q 3597 2675 3597 1894 
z
M 3022 2063 
Q 3016 2534 2758 2815 
Q 2500 3097 2075 3097 
Q 1594 3097 1305 2825 
Q 1016 2553 972 2059 
L 3022 2063 
z
" id="DejaVuSans-65" transform="scale(0.015625)"/>
       <path d="M 603 3500 
L 1178 3500 
L 1178 0 
L 603 0 
L 603 3500 
z
M 603 4863 
L 1178 4863 
L 1178 4134 
L 603 4134 
L 603 4863 
z
" id="DejaVuSans-69" transform="scale(0.015625)"/>
       <path d="M 1172 4494 
L 1172 3500 
L 2356 3500 
L 2356 3053 
L 1172 3053 
L 1172 1153 
Q 1172 725 1289 603 
Q 1406 481 1766 481 
L 2356 481 
L 2356 0 
L 1766 0 
Q 1100 0 847 248 
Q 594 497 594 1153 
L 594 3053 
L 172 3053 
L 172 3500 
L 594 3500 
L 594 4494 
L 1172 4494 
z
" id="DejaVuSans-74" transform="scale(0.015625)"/>
       <path id="DejaVuSans-20" transform="scale(0.015625)"/>
       <path d="M 3513 2113 
L 3513 0 
L 2938 0 
L 2938 2094 
Q 2938 2591 2744 2837 
Q 2550 3084 2163 3084 
Q 1697 3084 1428 2787 
Q 1159 2491 1159 1978 
L 1159 0 
L 581 0 
L 581 3500 
L 1159 3500 
L 1159 2956 
Q 1366 3272 1645 3428 
Q 1925 3584 2291 3584 
Q 2894 3584 3203 3211 
Q 3513 2838 3513 2113 
z
" id="DejaVuSans-6e" transform="scale(0.015625)"/>
       <path d="M 3425 4513 
L 3425 3897 
Q 3066 4069 2747 4153 
Q 2428 4238 2131 4238 
Q 1616 4238 1336 4038 
Q 1056 3838 1056 3469 
Q 1056 3159 1242 3001 
Q 1428 2844 1947 2747 
L 2328 2669 
Q 3034 2534 3370 2195 
Q 3706 1856 3706 1288 
Q 3706 609 3251 259 
Q 2797 -91 1919 -91 
Q 1588 -91 1214 -16 
Q 841 59 441 206 
L 441 856 
Q 825 641 1194 531 
Q 1563 422 1919 422 
Q 2459 422 2753 634 
Q 3047 847 3047 1241 
Q 3047 1584 2836 1778 
Q 2625 1972 2144 2069 
L 1759 2144 
Q 1053 2284 737 2584 
Q 422 2884 422 3419 
Q 422 4038 858 4394 
Q 1294 4750 2059 4750 
Q 2388 4750 2728 4690 
Q 3069 4631 3425 4513 
z
" id="DejaVuSans-53" transform="scale(0.015625)"/>
       <path d="M 581 4863 
L 1159 4863 
L 1159 1991 
L 2875 3500 
L 3609 3500 
L 1753 1863 
L 3688 0 
L 2938 0 
L 1159 1709 
L 1159 0 
L 581 0 
L 581 4863 
z
" id="DejaVuSans-6b" transform="scale(0.015625)"/>
       <path d="M 544 1381 
L 544 3500 
L 1119 3500 
L 1119 1403 
Q 1119 906 1312 657 
Q 1506 409 1894 409 
Q 2359 409 2629 706 
Q 2900 1003 2900 1516 
L 2900 3500 
L 3475 3500 
L 3475 0 
L 2900 0 
L 2900 538 
Q 2691 219 2414 64 
Q 2138 -91 1772 -91 
Q 1169 -91 856 284 
Q 544 659 544 1381 
z
M 1991 3584 
L 1991 3584 
z
" id="DejaVuSans-75" transform="scale(0.015625)"/>
       <path d="M 2906 2969 
L 2906 4863 
L 3481 4863 
L 3481 0 
L 2906 0 
L 2906 525 
Q 2725 213 2448 61 
Q 2172 -91 1784 -91 
Q 1150 -91 751 415 
Q 353 922 353 1747 
Q 353 2572 751 3078 
Q 1150 3584 1784 3584 
Q 2172 3584 2448 3432 
Q 2725 3281 2906 2969 
z
M 947 1747 
Q 947 1113 1208 752 
Q 1469 391 1925 391 
Q 2381 391 2643 752 
Q 2906 1113 2906 1747 
Q 2906 2381 2643 2742 
Q 2381 3103 1925 3103 
Q 1469 3103 1208 2742 
Q 947 2381 947 1747 
z
" id="DejaVuSans-64" transform="scale(0.015625)"/>
      </defs>
      <use xlink:href="#DejaVuSans-5a"/>
      <use x="68.505859" xlink:href="#DejaVuSans-65"/>
      <use x="130.029297" xlink:href="#DejaVuSans-69"/>
      <use x="157.8125" xlink:href="#DejaVuSans-74"/>
      <use x="197.021484" xlink:href="#DejaVuSans-20"/>
      <use x="228.808594" xlink:href="#DejaVuSans-69"/>
      <use x="256.591797" xlink:href="#DejaVuSans-6e"/>
      <use x="319.970703" xlink:href="#DejaVuSans-20"/>
      <use x="351.757812" xlink:href="#DejaVuSans-53"/>
      <use x="415.234375" xlink:href="#DejaVuSans-65"/>
      <use x="476.757812" xlink:href="#DejaVuSans-6b"/>
      <use x="531.542969" xlink:href="#DejaVuSans-75"/>
      <use x="594.921875" xlink:href="#DejaVuSans-6e"/>
      <use x="658.300781" xlink:href="#DejaVuSans-64"/>
      <use x="721.777344" xlink:href="#DejaVuSans-65"/>
      <use x="783.300781" xlink:href="#DejaVuSans-6e"/>
     </g>
    </g>
   </g>
   <g id="matplotlib.axis_2">
    <g id="ytick_1">
     <g id="line2d_9">
      <defs>
       <path d="M 0 0 
L -3.5 0 
" id="m229850a199" style="stroke:#000000;stroke-width:0.8;"/>
      </defs>
      <g>
       <use style="stroke:#000000;stroke-width:0.8;" x="54" xlink:href="#m229850a199" y="247.01734"/>
      </g>
     </g>
     <g id="text_10">
      <!-- 20 -->
      <g transform="translate(34.275 250.816559)scale(0.1 -0.1)">
       <use xlink:href="#DejaVuSans-32"/>
       <use x="63.623047" xlink:href="#DejaVuSans-30"/>
      </g>
     </g>
    </g>
    <g id="ytick_2">
     <g id="line2d_10">
      <g>
       <use style="stroke:#000000;stroke-width:0.8;" x="54" xlink:href="#m229850a199" y="214.344162"/>
      </g>
     </g>
     <g id="text_11">
      <!-- 40 -->
      <g transform="translate(34.275 218.143381)scale(0.1 -0.1)">
       <use xlink:href="#DejaVuSans-34"/>
       <use x="63.623047" xlink:href="#DejaVuSans-30"/>
      </g>
     </g>
    </g>
    <g id="ytick_3">
     <g id="line2d_11">
      <g>
       <use style="stroke:#000000;stroke-width:0.8;" x="54" xlink:href="#m229850a199" y="181.670984"/>
      </g>
     </g>
     <g id="text_12">
      <!-- 60 -->
      <g transform="translate(34.275 185.470203)scale(0.1 -0.1)">
       <use xlink:href="#DejaVuSans-36"/>
       <use x="63.623047" xlink:href="#DejaVuSans-30"/>
      </g>
     </g>
    </g>
    <g id="ytick_4">
     <g id="line2d_12">
      <g>
       <use style="stroke:#000000;stroke-width:0.8;" x="54" xlink:href="#m229850a199" y="148.997806"/>
      </g>
     </g>
     <g id="text_13">
      <!-- 80 -->
      <g transform="translate(34.275 152.797025)scale(0.1 -0.1)">
       <use xlink:href="#DejaVuSans-38"/>
       <use x="63.623047" xlink:href="#DejaVuSans-30"/>
      </g>
     </g>
    </g>
    <g id="ytick_5">
     <g id="line2d_13">
      <g>
       <use style="stroke:#000000;stroke-width:0.8;" x="54" xlink:href="#m229850a199" y="116.324628"/>
      </g>
     </g>
     <g id="text_14">
      <!-- 100 -->
      <g transform="translate(27.9125 120.123847)scale(0.1 -0.1)">
       <use xlink:href="#DejaVuSans-31"/>
       <use x="63.623047" xlink:href="#DejaVuSans-30"/>
       <use x="127.246094" xlink:href="#DejaVuSans-30"/>
      </g>
     </g>
    </g>
    <g id="ytick_6">
     <g id="line2d_14">
      <g>
       <use style="stroke:#000000;stroke-width:0.8;" x="54" xlink:href="#m229850a199" y="83.65145"/>
      </g>
     </g>
     <g id="text_15">
      <!-- 120 -->
      <g transform="translate(27.9125 87.450669)scale(0.1 -0.1)">
       <use xlink:href="#DejaVuSans-31"/>
       <use x="63.623047" xlink:href="#DejaVuSans-32"/>
       <use x="127.246094" xlink:href="#DejaVuSans-30"/>
      </g>
     </g>
    </g>
    <g id="ytick_7">
     <g id="line2d_15">
      <g>
       <use style="stroke:#000000;stroke-width:0.8;" x="54" xlink:href="#m229850a199" y="50.978272"/>
      </g>
     </g>
     <g id="text_16">
      <!-- 140 -->
      <g transform="translate(27.9125 54.777491)scale(0.1 -0.1)">
       <use xlink:href="#DejaVuSans-31"/>
       <use x="63.623047" xlink:href="#DejaVuSans-34"/>
       <use x="127.246094" xlink:href="#DejaVuSans-30"/>
      </g>
     </g>
    </g>
    <g id="text_17">
     <!-- Temperatur in °C -->
     <g transform="translate(21.832812 185.712813)rotate(-90)scale(0.1 -0.1)">
      <defs>
       <path d="M -19 4666 
L 3928 4666 
L 3928 4134 
L 2272 4134 
L 2272 0 
L 1638 0 
L 1638 4134 
L -19 4134 
L -19 4666 
z
" id="DejaVuSans-54" transform="scale(0.015625)"/>
       <path d="M 3328 2828 
Q 3544 3216 3844 3400 
Q 4144 3584 4550 3584 
Q 5097 3584 5394 3201 
Q 5691 2819 5691 2113 
L 5691 0 
L 5113 0 
L 5113 2094 
Q 5113 2597 4934 2840 
Q 4756 3084 4391 3084 
Q 3944 3084 3684 2787 
Q 3425 2491 3425 1978 
L 3425 0 
L 2847 0 
L 2847 2094 
Q 2847 2600 2669 2842 
Q 2491 3084 2119 3084 
Q 1678 3084 1418 2786 
Q 1159 2488 1159 1978 
L 1159 0 
L 581 0 
L 581 3500 
L 1159 3500 
L 1159 2956 
Q 1356 3278 1631 3431 
Q 1906 3584 2284 3584 
Q 2666 3584 2933 3390 
Q 3200 3197 3328 2828 
z
" id="DejaVuSans-6d" transform="scale(0.015625)"/>
       <path d="M 1159 525 
L 1159 -1331 
L 581 -1331 
L 581 3500 
L 1159 3500 
L 1159 2969 
Q 1341 3281 1617 3432 
Q 1894 3584 2278 3584 
Q 2916 3584 3314 3078 
Q 3713 2572 3713 1747 
Q 3713 922 3314 415 
Q 2916 -91 2278 -91 
Q 1894 -91 1617 61 
Q 1341 213 1159 525 
z
M 3116 1747 
Q 3116 2381 2855 2742 
Q 2594 3103 2138 3103 
Q 1681 3103 1420 2742 
Q 1159 2381 1159 1747 
Q 1159 1113 1420 752 
Q 1681 391 2138 391 
Q 2594 391 2855 752 
Q 3116 1113 3116 1747 
z
" id="DejaVuSans-70" transform="scale(0.015625)"/>
       <path d="M 2631 2963 
Q 2534 3019 2420 3045 
Q 2306 3072 2169 3072 
Q 1681 3072 1420 2755 
Q 1159 2438 1159 1844 
L 1159 0 
L 581 0 
L 581 3500 
L 1159 3500 
L 1159 2956 
Q 1341 3275 1631 3429 
Q 1922 3584 2338 3584 
Q 2397 3584 2469 3576 
Q 2541 3569 2628 3553 
L 2631 2963 
z
" id="DejaVuSans-72" transform="scale(0.015625)"/>
       <path d="M 2194 1759 
Q 1497 1759 1228 1600 
Q 959 1441 959 1056 
Q 959 750 1161 570 
Q 1363 391 1709 391 
Q 2188 391 2477 730 
Q 2766 1069 2766 1631 
L 2766 1759 
L 2194 1759 
z
M 3341 1997 
L 3341 0 
L 2766 0 
L 2766 531 
Q 2569 213 2275 61 
Q 1981 -91 1556 -91 
Q 1019 -91 701 211 
Q 384 513 384 1019 
Q 384 1609 779 1909 
Q 1175 2209 1959 2209 
L 2766 2209 
L 2766 2266 
Q 2766 2663 2505 2880 
Q 2244 3097 1772 3097 
Q 1472 3097 1187 3025 
Q 903 2953 641 2809 
L 641 3341 
Q 956 3463 1253 3523 
Q 1550 3584 1831 3584 
Q 2591 3584 2966 3190 
Q 3341 2797 3341 1997 
z
" id="DejaVuSans-61" transform="scale(0.015625)"/>
       <path d="M 1600 4347 
Q 1350 4347 1178 4173 
Q 1006 4000 1006 3750 
Q 1006 3503 1178 3333 
Q 1350 3163 1600 3163 
Q 1850 3163 2022 3333 
Q 2194 3503 2194 3750 
Q 2194 3997 2020 4172 
Q 1847 4347 1600 4347 
z
M 1600 4750 
Q 1800 4750 1984 4673 
Q 2169 4597 2303 4453 
Q 2447 4313 2519 4134 
Q 2591 3956 2591 3750 
Q 2591 3338 2302 3052 
Q 2013 2766 1594 2766 
Q 1172 2766 890 3047 
Q 609 3328 609 3750 
Q 609 4169 896 4459 
Q 1184 4750 1600 4750 
z
" id="DejaVuSans-b0" transform="scale(0.015625)"/>
       <path d="M 4122 4306 
L 4122 3641 
Q 3803 3938 3442 4084 
Q 3081 4231 2675 4231 
Q 1875 4231 1450 3742 
Q 1025 3253 1025 2328 
Q 1025 1406 1450 917 
Q 1875 428 2675 428 
Q 3081 428 3442 575 
Q 3803 722 4122 1019 
L 4122 359 
Q 3791 134 3420 21 
Q 3050 -91 2638 -91 
Q 1578 -91 968 557 
Q 359 1206 359 2328 
Q 359 3453 968 4101 
Q 1578 4750 2638 4750 
Q 3056 4750 3426 4639 
Q 3797 4528 4122 4306 
z
" id="DejaVuSans-43" transform="scale(0.015625)"/>
      </defs>
      <use xlink:href="#DejaVuSans-54"/>
      <use x="44.083984" xlink:href="#DejaVuSans-65"/>
      <use x="105.607422" xlink:href="#DejaVuSans-6d"/>
      <use x="203.019531" xlink:href="#DejaVuSans-70"/>
      <use x="266.496094" xlink:href="#DejaVuSans-65"/>
      <use x="328.019531" xlink:href="#DejaVuSans-72"/>
      <use x="369.132812" xlink:href="#DejaVuSans-61"/>
      <use x="430.412109" xlink:href="#DejaVuSans-74"/>
      <use x="469.621094" xlink:href="#DejaVuSans-75"/>
      <use x="533" xlink:href="#DejaVuSans-72"/>
      <use x="574.113281" xlink:href="#DejaVuSans-20"/>
      <use x="605.900391" xlink:href="#DejaVuSans-69"/>
      <use x="633.683594" xlink:href="#DejaVuSans-6e"/>
      <use x="697.0625" xlink:href="#DejaVuSans-20"/>
      <use x="728.849609" xlink:href="#DejaVuSans-b0"/>
      <use x="778.849609" xlink:href="#DejaVuSans-43"/>
     </g>
    </g>
   </g>
   <g id="line2d_16">
    <path clip-path="url(#peaf48f41af)" d="M 69.218182 78.750473 
L 71.482792 78.750473 
L 71.709253 44.443636 
L 84.617532 44.443636 
L 84.843994 67.314861 
L 92.317208 67.314861 
L 92.543669 132.661217 
L 101.60211 132.661217 
L 101.60211 132.661217 
" style="fill:none;stroke:#1f77b4;stroke-linecap:square;stroke-width:1.5;"/>
   </g>
   <g id="line2d_17">
    <path clip-path="url(#peaf48f41af)" d="M 69.218182 242.11594 
L 69.444643 240.634832 
L 69.671104 238.054877 
L 70.350487 220.914154 
L 70.576948 217.635673 
L 70.803409 211.523794 
L 71.02987 208.691852 
L 71.256331 203.449968 
L 71.482792 201.024906 
L 71.709253 196.526429 
L 71.935714 194.437514 
L 72.615097 182.384245 
L 72.841558 180.047021 
L 73.068019 175.619007 
L 73.294481 173.531486 
L 73.520942 169.599379 
L 73.747403 167.747709 
L 73.973864 164.253362 
L 74.200325 162.602822 
L 74.426786 159.476564 
L 74.653247 157.994088 
L 74.879708 155.175167 
L 75.106169 153.833237 
L 75.33263 151.272149 
L 75.559091 150.048591 
L 75.785552 147.705582 
L 76.012013 146.582592 
L 76.238474 144.425676 
L 76.464935 143.388879 
L 76.691396 141.392118 
L 76.917857 140.429803 
L 77.144318 138.571961 
L 77.370779 137.67449 
L 77.59724 135.938008 
L 77.823701 135.097372 
L 78.050162 133.467588 
L 78.276623 132.67707 
L 78.503084 131.141631 
L 78.729545 130.395546 
L 78.956006 128.943958 
L 79.182468 128.237457 
L 79.408929 126.860735 
L 79.63539 126.189653 
L 79.861851 124.880051 
L 80.088312 124.240786 
L 80.314773 122.991588 
L 80.541234 122.381004 
L 80.767695 121.18635 
L 80.994156 120.601708 
L 81.220617 119.456461 
L 81.447078 118.895354 
L 81.673539 117.794994 
L 81.9 117.255297 
L 82.126461 116.195827 
L 82.352922 115.67566 
L 82.579383 114.653536 
L 82.805844 114.151229 
L 83.032305 113.163299 
L 83.258766 112.677364 
L 83.485227 111.720815 
L 83.711688 111.249923 
L 83.938149 110.322242 
L 84.16461 109.865204 
L 84.391071 108.964137 
L 84.617532 108.519885 
L 85.070455 107.210985 
L 85.296916 106.79535 
L 85.749838 106.823031 
L 87.335065 107.189332 
L 88.240909 106.892342 
L 90.505519 105.087827 
L 91.184903 104.295955 
L 91.411364 104.130528 
L 92.090747 103.275277 
L 92.317208 103.099351 
L 92.77013 102.563472 
L 93.223052 104.048082 
L 93.902435 109.237772 
L 94.128896 110.283664 
L 94.355357 112.271961 
L 94.581818 113.207276 
L 94.808279 114.95567 
L 95.03474 115.769827 
L 95.261201 117.284244 
L 95.487662 117.987643 
L 95.714123 119.295175 
L 95.940584 119.902629 
L 96.167045 121.032846 
L 96.393506 121.558578 
L 96.619968 122.53814 
L 96.846429 122.994482 
L 97.07289 123.846013 
L 97.299351 124.243286 
L 97.525812 124.985583 
L 97.752273 125.332327 
L 97.978734 125.980917 
L 98.205195 126.284178 
L 98.431656 126.851839 
L 98.658117 127.117397 
L 99.111039 127.847195 
L 99.563961 128.486127 
L 100.016883 129.044702 
L 100.469805 129.531845 
L 100.922727 129.955229 
L 101.375649 130.321508 
L 102.055032 130.820546 
L 103.64026 131.321982 
L 105.451948 131.669315 
L 107.490097 131.837871 
L 109.981169 131.805615 
L 112.925162 131.52642 
L 116.548539 130.942781 
L 121.304221 129.930475 
L 127.871591 128.286745 
L 138.51526 125.367828 
L 173.843182 115.540363 
L 182.448701 113.449454 
L 189.695455 111.907024 
L 196.262825 110.728095 
L 202.603734 109.816822 
L 208.718182 109.164654 
L 214.83263 108.738247 
L 221.173539 108.526461 
L 227.740909 108.535071 
L 234.761201 108.769286 
L 242.687338 109.265004 
L 251.745779 110.061806 
L 263.068831 111.291918 
L 280.053409 113.386142 
L 316.287175 117.886309 
L 335.309903 119.99324 
L 353.653247 121.799811 
L 372.223052 123.40311 
L 373.581818 123.511841 
L 373.581818 123.511841 
" style="fill:none;stroke:#ff7f0e;stroke-linecap:square;stroke-width:1.5;"/>
   </g>
   <g id="line2d_18">
    <path clip-path="url(#peaf48f41af)" d="M 69.218182 242.11594 
L 71.482792 242.032862 
L 72.388636 241.615452 
L 73.747403 240.031084 
L 74.426786 238.64954 
L 74.653247 238.332116 
L 75.33263 236.554525 
L 75.559091 236.163394 
L 76.238474 234.051074 
L 76.464935 233.600046 
L 77.144318 231.222913 
L 77.370779 230.725556 
L 78.050162 228.14678 
L 78.276623 227.614654 
L 78.956006 224.886423 
L 79.182468 224.328874 
L 79.861851 221.492914 
L 80.088312 220.917356 
L 80.767695 218.006643 
L 80.994156 217.41892 
L 81.673539 214.459392 
L 81.9 213.864091 
L 82.579383 210.87607 
L 82.805844 210.276776 
L 83.032305 209.077135 
L 83.258766 208.476933 
L 83.485227 207.276102 
L 83.711688 206.675601 
L 83.938149 205.474721 
L 84.16461 204.874453 
L 84.391071 203.674521 
L 84.617532 203.074952 
L 84.843994 201.876836 
L 85.070455 201.278371 
L 85.296916 200.082823 
L 85.523377 199.485811 
L 85.749838 198.293477 
L 85.976299 197.698218 
L 86.20276 196.509725 
L 86.429221 195.916661 
L 86.655682 194.73361 
L 86.882143 194.144012 
L 87.108604 192.969776 
L 87.335065 192.385587 
L 87.561526 191.224103 
L 87.787987 190.647165 
L 88.014448 189.501619 
L 88.240909 188.933229 
L 88.46737 187.805596 
L 88.693831 187.246447 
L 88.920292 186.137601 
L 89.146753 185.58791 
L 89.373214 184.497928 
L 89.599675 183.957588 
L 89.826136 182.886038 
L 90.052597 182.354748 
L 90.279058 181.300912 
L 90.505519 180.778268 
L 90.731981 179.74128 
L 90.958442 179.226833 
L 91.184903 178.205775 
L 91.411364 177.699062 
L 91.637825 176.693014 
L 91.864286 176.19358 
L 92.090747 175.20165 
L 92.317208 174.709059 
L 92.77013 173.244229 
L 93.223052 171.797893 
L 93.675974 170.368923 
L 94.128896 168.95685 
L 94.581818 167.565886 
L 94.808279 166.655555 
L 95.03474 166.206976 
L 95.261201 165.325399 
L 95.487662 164.893247 
L 95.714123 164.047939 
L 95.940584 163.635303 
L 96.167045 162.830959 
L 96.393506 162.43946 
L 96.619968 161.678014 
L 96.846429 161.308045 
L 97.525812 159.431239 
L 97.752273 159.060257 
L 98.205195 157.972461 
L 98.658117 156.927996 
L 99.111039 155.928467 
L 99.563961 154.972432 
L 100.016883 154.057292 
L 100.469805 153.180059 
L 100.922727 152.337701 
L 101.375649 151.527293 
L 101.828571 150.746087 
L 102.281494 149.991531 
L 104.999026 147.1957 
L 108.169481 144.269597 
L 112.019318 141.027817 
L 117.227922 136.949173 
L 126.059903 130.364212 
L 148.932468 113.375154 
L 164.105357 102.119934 
L 171.125649 97.184085 
L 176.787175 93.46092 
L 181.769318 90.443539 
L 186.298539 87.95634 
L 190.601299 85.850467 
L 194.677597 84.106546 
L 198.527435 82.695075 
L 202.377273 81.517321 
L 206.22711 80.572828 
L 210.076948 79.856433 
L 213.926786 79.358983 
L 218.003084 79.057207 
L 222.305844 78.970799 
L 226.835065 79.113113 
L 231.590747 79.490713 
L 236.799351 80.135986 
L 242.460877 81.067699 
L 248.801786 82.34058 
L 256.275 84.077001 
L 265.559903 86.478467 
L 278.921104 90.18928 
L 309.040422 98.608718 
L 322.854545 102.201976 
L 335.762825 105.329439 
L 348.218182 108.119578 
L 360.673539 110.68321 
L 373.355357 113.065856 
L 373.581818 113.106373 
L 373.581818 113.106373 
" style="fill:none;stroke:#2ca02c;stroke-linecap:square;stroke-width:1.5;"/>
   </g>
   <g id="line2d_19">
    <path clip-path="url(#peaf48f41af)" d="M 69.218182 242.116364 
L 72.841558 242.004594 
L 73.747403 241.690159 
L 75.106169 240.573937 
L 75.785552 239.56097 
L 76.012013 239.323526 
L 76.691396 237.965947 
L 76.917857 237.66136 
L 77.59724 235.983834 
L 77.823701 235.619044 
L 78.503084 233.662658 
L 78.729545 233.246746 
L 79.408929 231.058539 
L 79.63539 230.600976 
L 80.314773 228.227135 
L 80.541234 227.736791 
L 81.220617 225.219127 
L 81.447078 224.703809 
L 82.126461 222.078395 
L 82.352922 221.544718 
L 83.032305 218.841713 
L 83.258766 218.295144 
L 83.938149 215.539221 
L 84.16461 214.984189 
L 84.843994 212.195191 
L 85.070455 211.635232 
L 85.749838 208.828884 
L 85.976299 208.266779 
L 86.655682 205.455362 
L 86.882143 204.893277 
L 87.335065 203.208451 
L 87.561526 202.087184 
L 87.787987 201.527411 
L 88.014448 200.410131 
L 88.240909 199.85286 
L 88.46737 198.741665 
L 88.693831 198.187984 
L 88.920292 197.08505 
L 89.146753 196.53602 
L 89.373214 195.443345 
L 89.599675 194.899884 
L 89.826136 193.819121 
L 90.052597 193.281956 
L 90.279058 192.214348 
L 90.505519 191.683998 
L 90.731981 190.630383 
L 90.958442 190.107172 
L 91.184903 189.068028 
L 91.411364 188.552114 
L 91.637825 187.527616 
L 91.864286 187.019024 
L 92.090747 186.009106 
L 92.317208 185.507753 
L 92.543669 184.512168 
L 92.77013 184.017893 
L 93.223052 182.548844 
L 93.675974 181.09987 
L 94.128896 179.670148 
L 94.581818 178.258837 
L 95.03474 176.865562 
L 95.487662 175.49154 
L 95.940584 174.140225 
L 96.393506 172.81683 
L 96.619968 170.760311 
L 96.846429 170.082282 
L 97.07289 168.863719 
L 97.299351 168.293812 
L 97.525812 167.204492 
L 97.752273 166.679973 
L 97.978734 165.664158 
L 98.205195 165.171163 
L 98.431656 164.212162 
L 98.658117 163.745352 
L 98.884578 162.835578 
L 99.111039 162.392121 
L 99.3375 161.527019 
L 99.563961 161.105005 
L 99.790422 160.281208 
L 100.016883 159.87911 
L 100.243344 159.093765 
L 100.469805 158.710229 
L 100.922727 157.594496 
L 101.375649 156.52825 
L 101.828571 155.507991 
L 102.281494 154.530374 
L 104.546104 151.539931 
L 107.037175 148.634479 
L 109.754708 145.799691 
L 113.151623 142.593328 
L 117.454383 138.867712 
L 123.34237 134.087397 
L 137.156494 123.25932 
L 170.446266 97.286372 
L 176.107792 93.292525 
L 181.089935 90.04355 
L 185.619156 87.355911 
L 189.695455 85.185354 
L 193.545292 83.371254 
L 197.39513 81.798765 
L 201.244968 80.474261 
L 204.868344 79.454848 
L 208.718182 78.608835 
L 212.568019 77.998349 
L 216.417857 77.610888 
L 220.494156 77.426879 
L 224.796916 77.46336 
L 229.326136 77.731001 
L 234.081818 78.233882 
L 239.290422 79.007688 
L 245.178409 80.114824 
L 251.745779 81.580045 
L 259.671916 83.587259 
L 269.636201 86.352397 
L 286.620779 91.338015 
L 307.681656 97.459013 
L 321.495779 101.23734 
L 334.177597 104.477766 
L 346.406494 107.37604 
L 358.63539 110.047085 
L 371.090747 112.537599 
L 373.581818 113.00858 
L 373.581818 113.00858 
" style="fill:none;stroke:#d62728;stroke-linecap:square;stroke-width:1.5;"/>
   </g>
   <g id="patch_3">
    <path d="M 54 252 
L 54 34.56 
" style="fill:none;stroke:#000000;stroke-linecap:square;stroke-linejoin:miter;stroke-width:0.8;"/>
   </g>
   <g id="patch_4">
    <path d="M 388.8 252 
L 388.8 34.56 
" style="fill:none;stroke:#000000;stroke-linecap:square;stroke-linejoin:miter;stroke-width:0.8;"/>
   </g>
   <g id="patch_5">
    <path d="M 54 252 
L 388.8 252 
" style="fill:none;stroke:#000000;stroke-linecap:square;stroke-linejoin:miter;stroke-width:0.8;"/>
   </g>
   <g id="patch_6">
    <path d="M 54 34.56 
L 388.8 34.56 
" style="fill:none;stroke:#000000;stroke-linecap:square;stroke-linejoin:miter;stroke-width:0.8;"/>
   </g>
   <g id="text_18">
    <!-- Regelungsimulation -->
    <g transform="translate(161.95125 28.56)scale(0.12 -0.12)">
     <defs>
      <path d="M 2841 2188 
Q 3044 2119 3236 1894 
Q 3428 1669 3622 1275 
L 4263 0 
L 3584 0 
L 2988 1197 
Q 2756 1666 2539 1819 
Q 2322 1972 1947 1972 
L 1259 1972 
L 1259 0 
L 628 0 
L 628 4666 
L 2053 4666 
Q 2853 4666 3247 4331 
Q 3641 3997 3641 3322 
Q 3641 2881 3436 2590 
Q 3231 2300 2841 2188 
z
M 1259 4147 
L 1259 2491 
L 2053 2491 
Q 2509 2491 2742 2702 
Q 2975 2913 2975 3322 
Q 2975 3731 2742 3939 
Q 2509 4147 2053 4147 
L 1259 4147 
z
" id="DejaVuSans-52" transform="scale(0.015625)"/>
      <path d="M 2906 1791 
Q 2906 2416 2648 2759 
Q 2391 3103 1925 3103 
Q 1463 3103 1205 2759 
Q 947 2416 947 1791 
Q 947 1169 1205 825 
Q 1463 481 1925 481 
Q 2391 481 2648 825 
Q 2906 1169 2906 1791 
z
M 3481 434 
Q 3481 -459 3084 -895 
Q 2688 -1331 1869 -1331 
Q 1566 -1331 1297 -1286 
Q 1028 -1241 775 -1147 
L 775 -588 
Q 1028 -725 1275 -790 
Q 1522 -856 1778 -856 
Q 2344 -856 2625 -561 
Q 2906 -266 2906 331 
L 2906 616 
Q 2728 306 2450 153 
Q 2172 0 1784 0 
Q 1141 0 747 490 
Q 353 981 353 1791 
Q 353 2603 747 3093 
Q 1141 3584 1784 3584 
Q 2172 3584 2450 3431 
Q 2728 3278 2906 2969 
L 2906 3500 
L 3481 3500 
L 3481 434 
z
" id="DejaVuSans-67" transform="scale(0.015625)"/>
      <path d="M 603 4863 
L 1178 4863 
L 1178 0 
L 603 0 
L 603 4863 
z
" id="DejaVuSans-6c" transform="scale(0.015625)"/>
      <path d="M 2834 3397 
L 2834 2853 
Q 2591 2978 2328 3040 
Q 2066 3103 1784 3103 
Q 1356 3103 1142 2972 
Q 928 2841 928 2578 
Q 928 2378 1081 2264 
Q 1234 2150 1697 2047 
L 1894 2003 
Q 2506 1872 2764 1633 
Q 3022 1394 3022 966 
Q 3022 478 2636 193 
Q 2250 -91 1575 -91 
Q 1294 -91 989 -36 
Q 684 19 347 128 
L 347 722 
Q 666 556 975 473 
Q 1284 391 1588 391 
Q 1994 391 2212 530 
Q 2431 669 2431 922 
Q 2431 1156 2273 1281 
Q 2116 1406 1581 1522 
L 1381 1569 
Q 847 1681 609 1914 
Q 372 2147 372 2553 
Q 372 3047 722 3315 
Q 1072 3584 1716 3584 
Q 2034 3584 2315 3537 
Q 2597 3491 2834 3397 
z
" id="DejaVuSans-73" transform="scale(0.015625)"/>
      <path d="M 1959 3097 
Q 1497 3097 1228 2736 
Q 959 2375 959 1747 
Q 959 1119 1226 758 
Q 1494 397 1959 397 
Q 2419 397 2687 759 
Q 2956 1122 2956 1747 
Q 2956 2369 2687 2733 
Q 2419 3097 1959 3097 
z
M 1959 3584 
Q 2709 3584 3137 3096 
Q 3566 2609 3566 1747 
Q 3566 888 3137 398 
Q 2709 -91 1959 -91 
Q 1206 -91 779 398 
Q 353 888 353 1747 
Q 353 2609 779 3096 
Q 1206 3584 1959 3584 
z
" id="DejaVuSans-6f" transform="scale(0.015625)"/>
     </defs>
     <use xlink:href="#DejaVuSans-52"/>
     <use x="64.982422" xlink:href="#DejaVuSans-65"/>
     <use x="126.505859" xlink:href="#DejaVuSans-67"/>
     <use x="189.982422" xlink:href="#DejaVuSans-65"/>
     <use x="251.505859" xlink:href="#DejaVuSans-6c"/>
     <use x="279.289062" xlink:href="#DejaVuSans-75"/>
     <use x="342.667969" xlink:href="#DejaVuSans-6e"/>
     <use x="406.046875" xlink:href="#DejaVuSans-67"/>
     <use x="469.523438" xlink:href="#DejaVuSans-73"/>
     <use x="521.623047" xlink:href="#DejaVuSans-69"/>
     <use x="549.40625" xlink:href="#DejaVuSans-6d"/>
     <use x="646.818359" xlink:href="#DejaVuSans-75"/>
     <use x="710.197266" xlink:href="#DejaVuSans-6c"/>
     <use x="737.980469" xlink:href="#DejaVuSans-61"/>
     <use x="799.259766" xlink:href="#DejaVuSans-74"/>
     <use x="838.46875" xlink:href="#DejaVuSans-69"/>
     <use x="866.251953" xlink:href="#DejaVuSans-6f"/>
     <use x="927.433594" xlink:href="#DejaVuSans-6e"/>
    </g>
   </g>
   <g id="legend_1">
    <g id="patch_7">
     <path d="M 337.075 101.2725 
L 381.8 101.2725 
Q 383.8 101.2725 383.8 99.2725 
L 383.8 41.56 
Q 383.8 39.56 381.8 39.56 
L 337.075 39.56 
Q 335.075 39.56 335.075 41.56 
L 335.075 99.2725 
Q 335.075 101.2725 337.075 101.2725 
z
" style="fill:#ffffff;opacity:0.8;stroke:#cccccc;stroke-linejoin:miter;"/>
    </g>
    <g id="line2d_20">
     <path d="M 339.075 47.658437 
L 359.075 47.658437 
" style="fill:none;stroke:#1f77b4;stroke-linecap:square;stroke-width:1.5;"/>
    </g>
    <g id="line2d_21"/>
    <g id="text_19">
     <!-- 0 -->
     <g transform="translate(367.075 51.158437)scale(0.1 -0.1)">
      <use xlink:href="#DejaVuSans-30"/>
     </g>
    </g>
    <g id="line2d_22">
     <path d="M 339.075 62.336562 
L 359.075 62.336562 
" style="fill:none;stroke:#ff7f0e;stroke-linecap:square;stroke-width:1.5;"/>
    </g>
    <g id="line2d_23"/>
    <g id="text_20">
     <!-- 3 -->
     <g transform="translate(367.075 65.836562)scale(0.1 -0.1)">
      <defs>
       <path d="M 2597 2516 
Q 3050 2419 3304 2112 
Q 3559 1806 3559 1356 
Q 3559 666 3084 287 
Q 2609 -91 1734 -91 
Q 1441 -91 1130 -33 
Q 819 25 488 141 
L 488 750 
Q 750 597 1062 519 
Q 1375 441 1716 441 
Q 2309 441 2620 675 
Q 2931 909 2931 1356 
Q 2931 1769 2642 2001 
Q 2353 2234 1838 2234 
L 1294 2234 
L 1294 2753 
L 1863 2753 
Q 2328 2753 2575 2939 
Q 2822 3125 2822 3475 
Q 2822 3834 2567 4026 
Q 2313 4219 1838 4219 
Q 1578 4219 1281 4162 
Q 984 4106 628 3988 
L 628 4550 
Q 988 4650 1302 4700 
Q 1616 4750 1894 4750 
Q 2613 4750 3031 4423 
Q 3450 4097 3450 3541 
Q 3450 3153 3228 2886 
Q 3006 2619 2597 2516 
z
" id="DejaVuSans-33" transform="scale(0.015625)"/>
      </defs>
      <use xlink:href="#DejaVuSans-33"/>
     </g>
    </g>
    <g id="line2d_24">
     <path d="M 339.075 77.014687 
L 359.075 77.014687 
" style="fill:none;stroke:#2ca02c;stroke-linecap:square;stroke-width:1.5;"/>
    </g>
    <g id="line2d_25"/>
    <g id="text_21">
     <!-- 9 -->
     <g transform="translate(367.075 80.514687)scale(0.1 -0.1)">
      <defs>
       <path d="M 703 97 
L 703 672 
Q 941 559 1184 500 
Q 1428 441 1663 441 
Q 2288 441 2617 861 
Q 2947 1281 2994 2138 
Q 2813 1869 2534 1725 
Q 2256 1581 1919 1581 
Q 1219 1581 811 2004 
Q 403 2428 403 3163 
Q 403 3881 828 4315 
Q 1253 4750 1959 4750 
Q 2769 4750 3195 4129 
Q 3622 3509 3622 2328 
Q 3622 1225 3098 567 
Q 2575 -91 1691 -91 
Q 1453 -91 1209 -44 
Q 966 3 703 97 
z
M 1959 2075 
Q 2384 2075 2632 2365 
Q 2881 2656 2881 3163 
Q 2881 3666 2632 3958 
Q 2384 4250 1959 4250 
Q 1534 4250 1286 3958 
Q 1038 3666 1038 3163 
Q 1038 2656 1286 2365 
Q 1534 2075 1959 2075 
z
" id="DejaVuSans-39" transform="scale(0.015625)"/>
      </defs>
      <use xlink:href="#DejaVuSans-39"/>
     </g>
    </g>
    <g id="line2d_26">
     <path d="M 339.075 91.692813 
L 359.075 91.692813 
" style="fill:none;stroke:#d62728;stroke-linecap:square;stroke-width:1.5;"/>
    </g>
    <g id="line2d_27"/>
    <g id="text_22">
     <!-- 12 -->
     <g transform="translate(367.075 95.192813)scale(0.1 -0.1)">
      <use xlink:href="#DejaVuSans-31"/>
      <use x="63.623047" xlink:href="#DejaVuSans-32"/>
     </g>
    </g>
   </g>
  </g>
 </g>
 <defs>
  <clipPath id="peaf48f41af">
   <rect height="217.44" width="334.8" x="54" y="34.56"/>
  </clipPath>
 </defs>
</svg>
